<svg xmlns="http://www.w3.org/2000/svg" width="40" height="32" viewBox="0 0 40 32">
    <g fill="#78D174" fill-rule="evenodd">
        <path d="M17.972 13.964c-2.612 2.36-3.804 5.252-3.478 8.836-1.431-.165-2.735-.347-4.046-.45-.453-.035-1.002-.002-1.373.217-2.47 1.456-3.091 1.602-3.395 1.456-.304-.146.006-.984.192-1.987.13-.71.408-1.174-.56-1.77-4.5-2.765-6.213-7.6-4.863-11.668C1.627 5.05 4.883 1.98 9.163.678c5.843-1.778 12.41.035 15.963 4.355 1.283 1.56 2.07 3.312 2.278 5.384-3.662.178-6.846 1.212-9.432 3.547zM8.926 6.838A1.64 1.64 0 0 0 7.22 8.423a1.62 1.62 0 0 0 1.605 1.682c.92.023 1.692-.682 1.726-1.578.033-.875-.724-1.663-1.625-1.689zm8.767 1.664c.016.91.765 1.622 1.694 1.61a1.619 1.619 0 0 0 1.63-1.66 1.629 1.629 0 0 0-1.673-1.615c-.904.017-1.667.787-1.651 1.665z"/>
        <path d="M32.275 30.365c-1.13.25-3.433.61-5.502.418-1.86-.173-4.808-.4-7.464-2.687-5.05-4.351-4.329-11.022 1.515-14.587 5.193-3.169 12.81-2.113 16.472 2.284 3.195 3.837 2.82 8.93-1.081 12.153-1.13.932-.68 1.326-.291 2.664.15.514.478 1.084.29 1.263-.082.079-.566-.095-1.255-.468-.88-.477-2.05-1.18-2.684-1.04zm-9.843-10.299c.738.001 1.346-.577 1.374-1.306a1.374 1.374 0 0 0-1.365-1.422c-.765-.004-1.406.653-1.38 1.413a1.376 1.376 0 0 0 1.37 1.315zm8.508-2.725a1.365 1.365 0 0 0-1.354 1.305c-.03.774.57 1.41 1.336 1.411a1.33 1.33 0 0 0 1.353-1.295 1.355 1.355 0 0 0-1.335-1.421z"/>
    </g>
</svg>
